<?xml version="1.0" encoding="UTF-8"?>
<!DOCTYPE svg PUBLIC "-//W3C//DTD SVG 1.1//EN" "http://www.w3.org/Graphics/SVG/1.1/DTD/svg11.dtd">
<svg xmlns="http://www.w3.org/2000/svg" xml:space="preserve" width="100mm" height="100mm" viewBox="0 0 46.9458 46.9458">
 <defs>
  <linearGradient id="id0" gradientUnits="userSpaceOnUse" x1="31.7823" y1="36.3873" x2="25.0901" y2="18.5415">
   <stop offset="0" style="stop-color:#A82682"/>
   <stop offset="1" style="stop-color:#334190"/>
  </linearGradient>
  <linearGradient id="id1" gradientUnits="userSpaceOnUse" x1="31.1687" y1="44.3983" x2="15.5207" y2="2.67051">
   <stop offset="0" style="stop-color:#A82682"/>
   <stop offset="1" style="stop-color:#334190"/>
  </linearGradient>
 </defs>
 <g>
  <rect fill="#EFEEF8" x="0" y="0" width="46.9458" height="46.9458" rx="3.66131" ry="3.66131"/>
  <path fill="url(#id1)" d="M24.2663 5.64913c5.23662,-0.139852 10.0058,1.99276 13.3628,5.50149 0.00830941,0.00873193 0.0254916,0.0141776 0.0249282,0.0261019l-0.232851 4.53581 -3.57474 -0.599733c-0.0198111,-0.00333315 -0.0274633,-0.0298106 -0.0413593,-0.0447863 -2.33297,-2.5139 -5.69467,-4.04997 -9.39269,-3.9512 -6.82405,0.182338 -12.2083,5.86203 -12.026,12.6862 0.182291,6.82405 5.86208,12.2083 12.6861,12.026 4.81974,-0.128772 8.92079,-3.00017 10.8501,-7.0799l0.218439 4.0204 3.8928 -0.123139c-3.03247,5.0441 -8.4957,8.48152 -14.8152,8.65029 -9.84384,0.262944 -18.037,-7.50382 -18.2999,-17.3477 -0.262944,-9.84379 7.50387,-18.0369 17.3477,-18.2999z"/>
  <path fill="url(#id0)" d="M35.784 20.159c0.203792,0.902064 0.31158,1.84164 0.31158,2.80689 0,0.869437 -0.0877418,1.71794 -0.254071,2.53709 -1.58297,5.13325 -5.02673,8.4318 -9.6238,9.26692 3.27569,-3.06279 5.18841,-6.44003 4.32306,-9.26692l-9.76394 0 0 -5.34399 15.0072 0z"/>
 </g>
</svg>